<mxfile host="app.diagrams.net" agent="Mozilla/5.0 (Macintosh; Intel Mac OS X 10_15_7) AppleWebKit/537.36 (KHTML, like Gecko) Chrome/130.0.0.0 Safari/537.36" version="25.0.1">
  <diagram name="第 1 页" id="fGxXC-Ezc5tjqpJ_ki4P">
    <mxGraphModel dx="2074" dy="1026" grid="1" gridSize="10" guides="1" tooltips="1" connect="1" arrows="1" fold="1" page="1" pageScale="1" pageWidth="827" pageHeight="1169" math="0" shadow="0">
      <root>
        <mxCell id="0" />
        <mxCell id="1" parent="0" />
        <mxCell id="No4xfbKJUnxh-b8goav9-117" value="账户信息查询" style="rounded=0;orthogonalLoop=1;jettySize=auto;html=1;exitX=0.077;exitY=0.5;exitDx=0;exitDy=0;exitPerimeter=0;entryX=1;entryY=0.25;entryDx=0;entryDy=0;" edge="1" parent="1" source="No4xfbKJUnxh-b8goav9-51" target="No4xfbKJUnxh-b8goav9-8">
          <mxGeometry relative="1" as="geometry" />
        </mxCell>
        <mxCell id="No4xfbKJUnxh-b8goav9-51" value="缓存查询逻辑封装JAR包" style="shape=module;align=left;spacingLeft=20;align=center;verticalAlign=top;whiteSpace=wrap;html=1;" vertex="1" parent="1">
          <mxGeometry x="840" y="430" width="130" height="140" as="geometry" />
        </mxCell>
        <mxCell id="No4xfbKJUnxh-b8goav9-8" value="Redis集群" style="rounded=1;whiteSpace=wrap;html=1;absoluteArcSize=1;arcSize=14;strokeWidth=2;align=center;horizontal=1;verticalAlign=top;" vertex="1" parent="1">
          <mxGeometry x="550" y="570" width="190" height="230" as="geometry" />
        </mxCell>
        <mxCell id="No4xfbKJUnxh-b8goav9-3" value="&lt;font style=&quot;font-size: 14px;&quot;&gt;reids&lt;/font&gt;" style="strokeWidth=2;html=1;shape=mxgraph.flowchart.database;whiteSpace=wrap;" vertex="1" parent="1">
          <mxGeometry x="565" y="620" width="160" height="50" as="geometry" />
        </mxCell>
        <mxCell id="No4xfbKJUnxh-b8goav9-4" value="&lt;font style=&quot;font-size: 14px;&quot;&gt;reids&lt;/font&gt;" style="strokeWidth=2;html=1;shape=mxgraph.flowchart.database;whiteSpace=wrap;" vertex="1" parent="1">
          <mxGeometry x="565" y="680" width="160" height="50" as="geometry" />
        </mxCell>
        <mxCell id="No4xfbKJUnxh-b8goav9-5" value="&lt;font style=&quot;font-size: 14px;&quot;&gt;reids&lt;/font&gt;" style="strokeWidth=2;html=1;shape=mxgraph.flowchart.database;whiteSpace=wrap;" vertex="1" parent="1">
          <mxGeometry x="565" y="740" width="160" height="50" as="geometry" />
        </mxCell>
        <mxCell id="No4xfbKJUnxh-b8goav9-6" value="账户平台" style="verticalAlign=top;align=left;spacingTop=8;spacingLeft=2;spacingRight=12;shape=cube;size=10;direction=south;fontStyle=4;html=1;whiteSpace=wrap;" vertex="1" parent="1">
          <mxGeometry x="180" y="490" width="190" height="205" as="geometry" />
        </mxCell>
        <mxCell id="No4xfbKJUnxh-b8goav9-7" value="" style="endArrow=classic;html=1;rounded=0;exitX=0.371;exitY=-0.016;exitDx=0;exitDy=0;exitPerimeter=0;entryX=0.005;entryY=0.152;entryDx=0;entryDy=0;entryPerimeter=0;" edge="1" parent="1" target="No4xfbKJUnxh-b8goav9-8">
          <mxGeometry width="50" height="50" relative="1" as="geometry">
            <mxPoint x="369.99999999999994" y="605.0049999999999" as="sourcePoint" />
            <mxPoint x="532" y="605" as="targetPoint" />
          </mxGeometry>
        </mxCell>
        <mxCell id="No4xfbKJUnxh-b8goav9-9" value="异步更新缓存" style="edgeLabel;html=1;align=center;verticalAlign=middle;resizable=0;points=[];" vertex="1" connectable="0" parent="No4xfbKJUnxh-b8goav9-7">
          <mxGeometry x="0.0667" y="-1" relative="1" as="geometry">
            <mxPoint as="offset" />
          </mxGeometry>
        </mxCell>
        <mxCell id="No4xfbKJUnxh-b8goav9-10" value="" style="endArrow=classic;html=1;rounded=0;entryX=0;entryY=0.683;entryDx=0;entryDy=0;entryPerimeter=0;exitX=0.82;exitY=0.011;exitDx=0;exitDy=0;exitPerimeter=0;" edge="1" parent="1" source="No4xfbKJUnxh-b8goav9-6" target="No4xfbKJUnxh-b8goav9-8">
          <mxGeometry width="50" height="50" relative="1" as="geometry">
            <mxPoint x="370" y="647" as="sourcePoint" />
            <mxPoint x="480" y="780" as="targetPoint" />
            <Array as="points" />
          </mxGeometry>
        </mxCell>
        <mxCell id="No4xfbKJUnxh-b8goav9-11" value="失效缓存" style="edgeLabel;html=1;align=center;verticalAlign=middle;resizable=0;points=[];" vertex="1" connectable="0" parent="No4xfbKJUnxh-b8goav9-10">
          <mxGeometry x="0.1213" relative="1" as="geometry">
            <mxPoint as="offset" />
          </mxGeometry>
        </mxCell>
        <mxCell id="No4xfbKJUnxh-b8goav9-13" value="账户核心" style="verticalAlign=top;align=left;spacingTop=8;spacingLeft=2;spacingRight=12;shape=cube;size=10;direction=south;fontStyle=4;html=1;whiteSpace=wrap;" vertex="1" parent="1">
          <mxGeometry x="20" y="190" width="180" height="120" as="geometry" />
        </mxCell>
        <mxCell id="No4xfbKJUnxh-b8goav9-16" value="账户信息库" style="strokeWidth=2;html=1;shape=mxgraph.flowchart.database;whiteSpace=wrap;" vertex="1" parent="1">
          <mxGeometry x="20" y="605" width="90" height="70" as="geometry" />
        </mxCell>
        <mxCell id="No4xfbKJUnxh-b8goav9-17" style="edgeStyle=orthogonalEdgeStyle;rounded=0;orthogonalLoop=1;jettySize=auto;html=1;entryX=0.5;entryY=0;entryDx=0;entryDy=0;entryPerimeter=0;" edge="1" parent="1" source="No4xfbKJUnxh-b8goav9-13" target="No4xfbKJUnxh-b8goav9-16">
          <mxGeometry relative="1" as="geometry" />
        </mxCell>
        <mxCell id="No4xfbKJUnxh-b8goav9-18" style="edgeStyle=orthogonalEdgeStyle;rounded=0;orthogonalLoop=1;jettySize=auto;html=1;exitX=0.356;exitY=1.005;exitDx=0;exitDy=0;exitPerimeter=0;entryX=1;entryY=0.5;entryDx=0;entryDy=0;entryPerimeter=0;" edge="1" parent="1" source="No4xfbKJUnxh-b8goav9-6" target="No4xfbKJUnxh-b8goav9-16">
          <mxGeometry relative="1" as="geometry" />
        </mxCell>
        <mxCell id="No4xfbKJUnxh-b8goav9-19" value="Actor" style="shape=umlActor;verticalLabelPosition=bottom;verticalAlign=top;html=1;" vertex="1" parent="1">
          <mxGeometry x="100" y="20" width="30" height="60" as="geometry" />
        </mxCell>
        <mxCell id="No4xfbKJUnxh-b8goav9-20" style="edgeStyle=orthogonalEdgeStyle;rounded=0;orthogonalLoop=1;jettySize=auto;html=1;entryX=0;entryY=0;entryDx=0;entryDy=85;entryPerimeter=0;" edge="1" parent="1" source="No4xfbKJUnxh-b8goav9-19" target="No4xfbKJUnxh-b8goav9-13">
          <mxGeometry relative="1" as="geometry" />
        </mxCell>
        <mxCell id="No4xfbKJUnxh-b8goav9-21" value="&lt;font style=&quot;font-size: 14px;&quot;&gt;账户变更申请&lt;/font&gt;" style="edgeLabel;html=1;align=center;verticalAlign=middle;resizable=0;points=[];" vertex="1" connectable="0" parent="No4xfbKJUnxh-b8goav9-20">
          <mxGeometry x="-0.1379" y="-4" relative="1" as="geometry">
            <mxPoint as="offset" />
          </mxGeometry>
        </mxCell>
        <mxCell id="No4xfbKJUnxh-b8goav9-23" value="发送账户变更消息" style="strokeWidth=2;html=1;shape=mxgraph.flowchart.document2;whiteSpace=wrap;size=0.25;" vertex="1" parent="1">
          <mxGeometry x="350" y="200" width="100" height="60" as="geometry" />
        </mxCell>
        <mxCell id="No4xfbKJUnxh-b8goav9-24" value="消息队列" style="verticalAlign=top;align=left;spacingTop=8;spacingLeft=2;spacingRight=12;shape=cube;size=10;direction=south;fontStyle=4;html=1;whiteSpace=wrap;" vertex="1" parent="1">
          <mxGeometry x="510" y="160" width="180" height="120" as="geometry" />
        </mxCell>
        <mxCell id="No4xfbKJUnxh-b8goav9-25" style="edgeStyle=orthogonalEdgeStyle;rounded=0;orthogonalLoop=1;jettySize=auto;html=1;exitX=0;exitY=0;exitDx=55;exitDy=0;exitPerimeter=0;entryX=0;entryY=0.5;entryDx=0;entryDy=0;entryPerimeter=0;" edge="1" parent="1" source="No4xfbKJUnxh-b8goav9-13" target="No4xfbKJUnxh-b8goav9-23">
          <mxGeometry relative="1" as="geometry" />
        </mxCell>
        <mxCell id="No4xfbKJUnxh-b8goav9-26" style="edgeStyle=orthogonalEdgeStyle;rounded=0;orthogonalLoop=1;jettySize=auto;html=1;exitX=1;exitY=0.5;exitDx=0;exitDy=0;exitPerimeter=0;entryX=0;entryY=0;entryDx=65;entryDy=180;entryPerimeter=0;" edge="1" parent="1" source="No4xfbKJUnxh-b8goav9-23" target="No4xfbKJUnxh-b8goav9-24">
          <mxGeometry relative="1" as="geometry" />
        </mxCell>
        <mxCell id="No4xfbKJUnxh-b8goav9-27" style="edgeStyle=orthogonalEdgeStyle;rounded=0;orthogonalLoop=1;jettySize=auto;html=1;exitX=0;exitY=0;exitDx=120;exitDy=95;exitPerimeter=0;entryX=0.01;entryY=0.505;entryDx=0;entryDy=0;entryPerimeter=0;" edge="1" parent="1" source="No4xfbKJUnxh-b8goav9-24" target="No4xfbKJUnxh-b8goav9-6">
          <mxGeometry relative="1" as="geometry">
            <mxPoint x="290" y="490" as="targetPoint" />
          </mxGeometry>
        </mxCell>
        <mxCell id="No4xfbKJUnxh-b8goav9-28" value="Text" style="edgeLabel;html=1;align=center;verticalAlign=middle;resizable=0;points=[];" vertex="1" connectable="0" parent="No4xfbKJUnxh-b8goav9-27">
          <mxGeometry x="0.0773" y="4" relative="1" as="geometry">
            <mxPoint as="offset" />
          </mxGeometry>
        </mxCell>
        <mxCell id="No4xfbKJUnxh-b8goav9-29" value="消费账户变更消息" style="strokeWidth=2;html=1;shape=mxgraph.flowchart.document2;whiteSpace=wrap;size=0.25;" vertex="1" parent="1">
          <mxGeometry x="380" y="350" width="100" height="60" as="geometry" />
        </mxCell>
        <mxCell id="No4xfbKJUnxh-b8goav9-32" value="支付受理" style="verticalAlign=top;align=left;spacingTop=8;spacingLeft=2;spacingRight=12;shape=cube;size=10;direction=south;fontStyle=4;html=1;whiteSpace=wrap;" vertex="1" parent="1">
          <mxGeometry x="1070" y="190" width="180" height="120" as="geometry" />
        </mxCell>
        <mxCell id="No4xfbKJUnxh-b8goav9-33" value="来账平台" style="verticalAlign=top;align=left;spacingTop=8;spacingLeft=2;spacingRight=12;shape=cube;size=10;direction=south;fontStyle=4;html=1;whiteSpace=wrap;" vertex="1" parent="1">
          <mxGeometry x="1070" y="340" width="180" height="120" as="geometry" />
        </mxCell>
        <mxCell id="No4xfbKJUnxh-b8goav9-52" style="edgeStyle=orthogonalEdgeStyle;rounded=0;orthogonalLoop=1;jettySize=auto;html=1;exitX=0;exitY=0;exitDx=65;exitDy=180;exitPerimeter=0;entryX=1;entryY=0.5;entryDx=0;entryDy=0;" edge="1" parent="1" source="No4xfbKJUnxh-b8goav9-34" target="No4xfbKJUnxh-b8goav9-51">
          <mxGeometry relative="1" as="geometry" />
        </mxCell>
        <mxCell id="No4xfbKJUnxh-b8goav9-53" value="账户信息查询" style="edgeLabel;html=1;align=center;verticalAlign=middle;resizable=0;points=[];" vertex="1" connectable="0" parent="No4xfbKJUnxh-b8goav9-52">
          <mxGeometry x="-0.359" y="1" relative="1" as="geometry">
            <mxPoint as="offset" />
          </mxGeometry>
        </mxCell>
        <mxCell id="No4xfbKJUnxh-b8goav9-34" value="资产交换" style="verticalAlign=top;align=left;spacingTop=8;spacingLeft=2;spacingRight=12;shape=cube;size=10;direction=south;fontStyle=4;html=1;whiteSpace=wrap;" vertex="1" parent="1">
          <mxGeometry x="1070" y="500" width="180" height="120" as="geometry" />
        </mxCell>
        <mxCell id="No4xfbKJUnxh-b8goav9-36" value="支付产品" style="verticalAlign=top;align=left;spacingTop=8;spacingLeft=2;spacingRight=12;shape=cube;size=10;direction=south;fontStyle=4;html=1;whiteSpace=wrap;" vertex="1" parent="1">
          <mxGeometry x="1070" y="650" width="180" height="120" as="geometry" />
        </mxCell>
        <mxCell id="No4xfbKJUnxh-b8goav9-38" style="edgeStyle=orthogonalEdgeStyle;rounded=0;orthogonalLoop=1;jettySize=auto;html=1;exitX=0;exitY=0;exitDx=65;exitDy=180;exitPerimeter=0;entryX=1;entryY=0.75;entryDx=0;entryDy=0;" edge="1" parent="1" source="No4xfbKJUnxh-b8goav9-36" target="No4xfbKJUnxh-b8goav9-51">
          <mxGeometry relative="1" as="geometry" />
        </mxCell>
        <mxCell id="No4xfbKJUnxh-b8goav9-45" value="账户信息查询" style="edgeLabel;html=1;align=center;verticalAlign=middle;resizable=0;points=[];" vertex="1" connectable="0" parent="No4xfbKJUnxh-b8goav9-38">
          <mxGeometry x="-0.3383" y="2" relative="1" as="geometry">
            <mxPoint as="offset" />
          </mxGeometry>
        </mxCell>
        <mxCell id="No4xfbKJUnxh-b8goav9-39" style="edgeStyle=orthogonalEdgeStyle;rounded=0;orthogonalLoop=1;jettySize=auto;html=1;exitX=0;exitY=0;exitDx=65;exitDy=180;exitPerimeter=0;entryX=1;entryY=0.25;entryDx=0;entryDy=0;" edge="1" parent="1" source="No4xfbKJUnxh-b8goav9-33" target="No4xfbKJUnxh-b8goav9-51">
          <mxGeometry relative="1" as="geometry" />
        </mxCell>
        <mxCell id="No4xfbKJUnxh-b8goav9-42" value="账户信息查询" style="edgeLabel;html=1;align=center;verticalAlign=middle;resizable=0;points=[];" vertex="1" connectable="0" parent="No4xfbKJUnxh-b8goav9-39">
          <mxGeometry x="-0.6152" y="2" relative="1" as="geometry">
            <mxPoint as="offset" />
          </mxGeometry>
        </mxCell>
        <mxCell id="No4xfbKJUnxh-b8goav9-40" style="edgeStyle=orthogonalEdgeStyle;rounded=0;orthogonalLoop=1;jettySize=auto;html=1;exitX=0;exitY=0;exitDx=65;exitDy=180;exitPerimeter=0;" edge="1" parent="1" source="No4xfbKJUnxh-b8goav9-32" target="No4xfbKJUnxh-b8goav9-51">
          <mxGeometry relative="1" as="geometry">
            <mxPoint x="1020" y="370" as="sourcePoint" />
            <mxPoint x="820" y="520" as="targetPoint" />
            <Array as="points">
              <mxPoint x="1070" y="260" />
              <mxPoint x="902" y="260" />
              <mxPoint x="902" y="450" />
            </Array>
          </mxGeometry>
        </mxCell>
        <mxCell id="No4xfbKJUnxh-b8goav9-41" value="账户信息查询" style="edgeLabel;html=1;align=center;verticalAlign=middle;resizable=0;points=[];" vertex="1" connectable="0" parent="No4xfbKJUnxh-b8goav9-40">
          <mxGeometry x="-0.6685" y="3" relative="1" as="geometry">
            <mxPoint as="offset" />
          </mxGeometry>
        </mxCell>
        <mxCell id="No4xfbKJUnxh-b8goav9-48" value="热点key解决&lt;div&gt;key后面增加&lt;div&gt;[00-99]哈希打散key&lt;/div&gt;&lt;/div&gt;&lt;div&gt;&lt;br&gt;&lt;/div&gt;&lt;div&gt;针对热点账户失效缓存，需要便利全部哈希打散key进行失效&lt;/div&gt;" style="html=1;dropTarget=0;whiteSpace=wrap;" vertex="1" parent="1">
          <mxGeometry x="205" y="535" width="140" height="140" as="geometry" />
        </mxCell>
        <mxCell id="No4xfbKJUnxh-b8goav9-49" value="" style="shape=module;jettyWidth=8;jettyHeight=4;" vertex="1" parent="No4xfbKJUnxh-b8goav9-48">
          <mxGeometry x="1" width="20" height="20" relative="1" as="geometry">
            <mxPoint x="-27" y="7" as="offset" />
          </mxGeometry>
        </mxCell>
        <mxCell id="No4xfbKJUnxh-b8goav9-59" value="支付受理" style="verticalAlign=top;align=left;spacingTop=8;spacingLeft=2;spacingRight=12;shape=cube;size=10;direction=south;fontStyle=4;html=1;whiteSpace=wrap;" vertex="1" parent="1">
          <mxGeometry x="1070" y="190" width="180" height="120" as="geometry" />
        </mxCell>
        <mxCell id="No4xfbKJUnxh-b8goav9-60" value="来账平台" style="verticalAlign=top;align=left;spacingTop=8;spacingLeft=2;spacingRight=12;shape=cube;size=10;direction=south;fontStyle=4;html=1;whiteSpace=wrap;" vertex="1" parent="1">
          <mxGeometry x="1070" y="340" width="180" height="120" as="geometry" />
        </mxCell>
        <mxCell id="No4xfbKJUnxh-b8goav9-61" value="资产交换" style="verticalAlign=top;align=left;spacingTop=8;spacingLeft=2;spacingRight=12;shape=cube;size=10;direction=south;fontStyle=4;html=1;whiteSpace=wrap;" vertex="1" parent="1">
          <mxGeometry x="1070" y="500" width="180" height="120" as="geometry" />
        </mxCell>
        <mxCell id="No4xfbKJUnxh-b8goav9-62" value="支付产品" style="verticalAlign=top;align=left;spacingTop=8;spacingLeft=2;spacingRight=12;shape=cube;size=10;direction=south;fontStyle=4;html=1;whiteSpace=wrap;" vertex="1" parent="1">
          <mxGeometry x="1070" y="650" width="180" height="120" as="geometry" />
        </mxCell>
        <mxCell id="No4xfbKJUnxh-b8goav9-70" style="rounded=0;orthogonalLoop=1;jettySize=auto;html=1;exitX=0.5;exitY=1;exitDx=0;exitDy=0;entryX=0.25;entryY=0;entryDx=0;entryDy=0;" edge="1" parent="1" source="No4xfbKJUnxh-b8goav9-105" target="No4xfbKJUnxh-b8goav9-76">
          <mxGeometry relative="1" as="geometry" />
        </mxCell>
        <mxCell id="No4xfbKJUnxh-b8goav9-114" value="账户查询" style="edgeLabel;html=1;align=center;verticalAlign=middle;resizable=0;points=[];" vertex="1" connectable="0" parent="No4xfbKJUnxh-b8goav9-70">
          <mxGeometry x="-0.4187" relative="1" as="geometry">
            <mxPoint y="-18" as="offset" />
          </mxGeometry>
        </mxCell>
        <mxCell id="No4xfbKJUnxh-b8goav9-63" value="支付受理" style="verticalAlign=top;align=left;spacingTop=8;spacingLeft=2;spacingRight=12;shape=cube;size=10;direction=south;fontStyle=4;html=1;whiteSpace=wrap;" vertex="1" parent="1">
          <mxGeometry x="370" y="910" width="180" height="120" as="geometry" />
        </mxCell>
        <mxCell id="No4xfbKJUnxh-b8goav9-64" value="来账平台" style="verticalAlign=top;align=left;spacingTop=8;spacingLeft=2;spacingRight=12;shape=cube;size=10;direction=south;fontStyle=4;html=1;whiteSpace=wrap;" vertex="1" parent="1">
          <mxGeometry x="640" y="910" width="180" height="120" as="geometry" />
        </mxCell>
        <mxCell id="No4xfbKJUnxh-b8goav9-65" value="资产交换" style="verticalAlign=top;align=left;spacingTop=8;spacingLeft=2;spacingRight=12;shape=cube;size=10;direction=south;fontStyle=4;html=1;whiteSpace=wrap;" vertex="1" parent="1">
          <mxGeometry x="910" y="910" width="180" height="120" as="geometry" />
        </mxCell>
        <mxCell id="No4xfbKJUnxh-b8goav9-66" value="支付产品" style="verticalAlign=top;align=left;spacingTop=8;spacingLeft=2;spacingRight=12;shape=cube;size=10;direction=south;fontStyle=4;html=1;whiteSpace=wrap;" vertex="1" parent="1">
          <mxGeometry x="1161" y="910" width="180" height="120" as="geometry" />
        </mxCell>
        <mxCell id="No4xfbKJUnxh-b8goav9-67" value="账户平台" style="verticalAlign=top;align=left;spacingTop=8;spacingLeft=2;spacingRight=12;shape=cube;size=10;direction=south;fontStyle=4;html=1;whiteSpace=wrap;" vertex="1" parent="1">
          <mxGeometry x="970" y="1210" width="170" height="170" as="geometry" />
        </mxCell>
        <mxCell id="No4xfbKJUnxh-b8goav9-76" value="Redis集群" style="rounded=1;whiteSpace=wrap;html=1;absoluteArcSize=1;arcSize=14;strokeWidth=2;align=center;horizontal=1;verticalAlign=top;" vertex="1" parent="1">
          <mxGeometry x="650" y="1210" width="190" height="230" as="geometry" />
        </mxCell>
        <mxCell id="No4xfbKJUnxh-b8goav9-77" value="&lt;font style=&quot;font-size: 14px;&quot;&gt;reids&lt;/font&gt;" style="strokeWidth=2;html=1;shape=mxgraph.flowchart.database;whiteSpace=wrap;" vertex="1" parent="1">
          <mxGeometry x="665" y="1260" width="160" height="50" as="geometry" />
        </mxCell>
        <mxCell id="No4xfbKJUnxh-b8goav9-78" value="&lt;font style=&quot;font-size: 14px;&quot;&gt;reids&lt;/font&gt;" style="strokeWidth=2;html=1;shape=mxgraph.flowchart.database;whiteSpace=wrap;" vertex="1" parent="1">
          <mxGeometry x="665" y="1320" width="160" height="50" as="geometry" />
        </mxCell>
        <mxCell id="No4xfbKJUnxh-b8goav9-79" value="&lt;font style=&quot;font-size: 14px;&quot;&gt;reids&lt;/font&gt;" style="strokeWidth=2;html=1;shape=mxgraph.flowchart.database;whiteSpace=wrap;" vertex="1" parent="1">
          <mxGeometry x="665" y="1380" width="160" height="50" as="geometry" />
        </mxCell>
        <mxCell id="No4xfbKJUnxh-b8goav9-80" value="账户数据库" style="strokeWidth=2;html=1;shape=mxgraph.flowchart.database;whiteSpace=wrap;" vertex="1" parent="1">
          <mxGeometry x="1250" y="1170" width="140" height="230" as="geometry" />
        </mxCell>
        <mxCell id="No4xfbKJUnxh-b8goav9-84" value="" style="rounded=0;orthogonalLoop=1;jettySize=auto;html=1;exitX=0;exitY=0;exitDx=120;exitDy=95;exitPerimeter=0;entryX=0.5;entryY=0;entryDx=0;entryDy=0;" edge="1" parent="1" source="No4xfbKJUnxh-b8goav9-64" target="No4xfbKJUnxh-b8goav9-76">
          <mxGeometry relative="1" as="geometry">
            <mxPoint x="930" y="1360" as="targetPoint" />
            <mxPoint x="725" y="1030" as="sourcePoint" />
          </mxGeometry>
        </mxCell>
        <mxCell id="No4xfbKJUnxh-b8goav9-88" value="账户查询" style="edgeLabel;html=1;align=center;verticalAlign=middle;resizable=0;points=[];" vertex="1" connectable="0" parent="No4xfbKJUnxh-b8goav9-84">
          <mxGeometry x="-0.5471" y="2" relative="1" as="geometry">
            <mxPoint x="-2" y="16" as="offset" />
          </mxGeometry>
        </mxCell>
        <mxCell id="No4xfbKJUnxh-b8goav9-85" value="" style="rounded=0;orthogonalLoop=1;jettySize=auto;html=1;exitX=0;exitY=0;exitDx=120;exitDy=95;exitPerimeter=0;entryX=0.8;entryY=0.013;entryDx=0;entryDy=0;entryPerimeter=0;" edge="1" parent="1" source="No4xfbKJUnxh-b8goav9-66" target="No4xfbKJUnxh-b8goav9-76">
          <mxGeometry relative="1" as="geometry">
            <mxPoint x="810" y="1210" as="targetPoint" />
            <mxPoint x="1246" y="1030" as="sourcePoint" />
          </mxGeometry>
        </mxCell>
        <mxCell id="No4xfbKJUnxh-b8goav9-116" value="账户查询" style="edgeLabel;html=1;align=center;verticalAlign=middle;resizable=0;points=[];" vertex="1" connectable="0" parent="No4xfbKJUnxh-b8goav9-85">
          <mxGeometry x="-0.4488" y="1" relative="1" as="geometry">
            <mxPoint y="-1" as="offset" />
          </mxGeometry>
        </mxCell>
        <mxCell id="No4xfbKJUnxh-b8goav9-100" style="edgeStyle=orthogonalEdgeStyle;rounded=0;orthogonalLoop=1;jettySize=auto;html=1;exitX=0;exitY=0;exitDx=90;exitDy=170;exitPerimeter=0;entryX=0.989;entryY=0.413;entryDx=0;entryDy=0;entryPerimeter=0;" edge="1" parent="1" source="No4xfbKJUnxh-b8goav9-67" target="No4xfbKJUnxh-b8goav9-76">
          <mxGeometry relative="1" as="geometry" />
        </mxCell>
        <mxCell id="No4xfbKJUnxh-b8goav9-101" value="缓存失效" style="edgeLabel;html=1;align=center;verticalAlign=middle;resizable=0;points=[];" vertex="1" connectable="0" parent="No4xfbKJUnxh-b8goav9-100">
          <mxGeometry x="0.6039" y="-1" relative="1" as="geometry">
            <mxPoint x="29" as="offset" />
          </mxGeometry>
        </mxCell>
        <mxCell id="No4xfbKJUnxh-b8goav9-102" style="edgeStyle=orthogonalEdgeStyle;rounded=0;orthogonalLoop=1;jettySize=auto;html=1;exitX=0;exitY=0;exitDx=90;exitDy=170;exitPerimeter=0;entryX=0.995;entryY=0.63;entryDx=0;entryDy=0;entryPerimeter=0;" edge="1" parent="1" source="No4xfbKJUnxh-b8goav9-67" target="No4xfbKJUnxh-b8goav9-76">
          <mxGeometry relative="1" as="geometry">
            <Array as="points">
              <mxPoint x="970" y="1355" />
            </Array>
          </mxGeometry>
        </mxCell>
        <mxCell id="No4xfbKJUnxh-b8goav9-103" value="缓存更新" style="edgeLabel;html=1;align=center;verticalAlign=middle;resizable=0;points=[];" vertex="1" connectable="0" parent="No4xfbKJUnxh-b8goav9-102">
          <mxGeometry x="0.527" y="2" relative="1" as="geometry">
            <mxPoint as="offset" />
          </mxGeometry>
        </mxCell>
        <mxCell id="No4xfbKJUnxh-b8goav9-104" style="edgeStyle=orthogonalEdgeStyle;rounded=0;orthogonalLoop=1;jettySize=auto;html=1;exitX=0;exitY=0;exitDx=80;exitDy=0;exitPerimeter=0;entryX=0;entryY=0.5;entryDx=0;entryDy=0;entryPerimeter=0;" edge="1" parent="1" source="No4xfbKJUnxh-b8goav9-67" target="No4xfbKJUnxh-b8goav9-80">
          <mxGeometry relative="1" as="geometry" />
        </mxCell>
        <mxCell id="No4xfbKJUnxh-b8goav9-106" value="账户近端缓存jar包" style="shape=module;align=left;spacingLeft=20;align=center;verticalAlign=top;whiteSpace=wrap;html=1;" vertex="1" parent="1">
          <mxGeometry x="670" y="1010" width="100" height="50" as="geometry" />
        </mxCell>
        <mxCell id="No4xfbKJUnxh-b8goav9-107" value="" style="rounded=0;orthogonalLoop=1;jettySize=auto;html=1;exitX=0;exitY=0;exitDx=120;exitDy=95;exitPerimeter=0;entryX=0.006;entryY=0.506;entryDx=0;entryDy=0;entryPerimeter=0;" edge="1" parent="1" source="No4xfbKJUnxh-b8goav9-63" target="No4xfbKJUnxh-b8goav9-105">
          <mxGeometry relative="1" as="geometry">
            <mxPoint x="455" y="1030" as="sourcePoint" />
            <mxPoint x="1014" y="1491" as="targetPoint" />
          </mxGeometry>
        </mxCell>
        <mxCell id="No4xfbKJUnxh-b8goav9-108" value="账户查询" style="edgeLabel;html=1;align=center;verticalAlign=middle;resizable=0;points=[];" vertex="1" connectable="0" parent="No4xfbKJUnxh-b8goav9-107">
          <mxGeometry x="-0.2711" y="1" relative="1" as="geometry">
            <mxPoint as="offset" />
          </mxGeometry>
        </mxCell>
        <mxCell id="No4xfbKJUnxh-b8goav9-105" value="账户近端缓存jar包" style="shape=module;align=left;spacingLeft=20;align=center;verticalAlign=top;whiteSpace=wrap;html=1;" vertex="1" parent="1">
          <mxGeometry x="414" y="1000" width="100" height="50" as="geometry" />
        </mxCell>
        <mxCell id="No4xfbKJUnxh-b8goav9-110" value="" style="rounded=0;orthogonalLoop=1;jettySize=auto;html=1;exitX=0;exitY=0;exitDx=120;exitDy=95;exitPerimeter=0;entryX=-0.018;entryY=0.531;entryDx=0;entryDy=0;entryPerimeter=0;" edge="1" parent="1" source="No4xfbKJUnxh-b8goav9-65" target="No4xfbKJUnxh-b8goav9-109">
          <mxGeometry relative="1" as="geometry">
            <mxPoint x="1010" y="1487" as="targetPoint" />
            <mxPoint x="995" y="1030" as="sourcePoint" />
          </mxGeometry>
        </mxCell>
        <mxCell id="No4xfbKJUnxh-b8goav9-113" style="rounded=0;orthogonalLoop=1;jettySize=auto;html=1;exitX=0.5;exitY=1;exitDx=0;exitDy=0;entryX=0.679;entryY=-0.004;entryDx=0;entryDy=0;entryPerimeter=0;" edge="1" parent="1" source="No4xfbKJUnxh-b8goav9-109" target="No4xfbKJUnxh-b8goav9-76">
          <mxGeometry relative="1" as="geometry">
            <mxPoint x="764" y="1490" as="targetPoint" />
          </mxGeometry>
        </mxCell>
        <mxCell id="No4xfbKJUnxh-b8goav9-115" value="账户查询" style="edgeLabel;html=1;align=center;verticalAlign=middle;resizable=0;points=[];" vertex="1" connectable="0" parent="No4xfbKJUnxh-b8goav9-113">
          <mxGeometry x="-0.5321" y="-1" relative="1" as="geometry">
            <mxPoint x="-1" as="offset" />
          </mxGeometry>
        </mxCell>
        <mxCell id="No4xfbKJUnxh-b8goav9-109" value="账户近端缓存jar包" style="shape=module;align=left;spacingLeft=20;align=center;verticalAlign=top;whiteSpace=wrap;html=1;" vertex="1" parent="1">
          <mxGeometry x="940" y="1000" width="100" height="50" as="geometry" />
        </mxCell>
        <mxCell id="No4xfbKJUnxh-b8goav9-112" value="账户近端缓存jar包" style="shape=module;align=left;spacingLeft=20;align=center;verticalAlign=top;whiteSpace=wrap;html=1;" vertex="1" parent="1">
          <mxGeometry x="1191" y="1000" width="100" height="50" as="geometry" />
        </mxCell>
        <mxCell id="No4xfbKJUnxh-b8goav9-118" style="rounded=0;orthogonalLoop=1;jettySize=auto;html=1;exitX=0;exitY=0.5;exitDx=10;exitDy=0;exitPerimeter=0;" edge="1" parent="1" source="No4xfbKJUnxh-b8goav9-51">
          <mxGeometry relative="1" as="geometry">
            <mxPoint x="374" y="540" as="targetPoint" />
          </mxGeometry>
        </mxCell>
        <mxCell id="No4xfbKJUnxh-b8goav9-119" value="缓存不存在，发起tr接口查询" style="edgeLabel;html=1;align=center;verticalAlign=middle;resizable=0;points=[];" vertex="1" connectable="0" parent="No4xfbKJUnxh-b8goav9-118">
          <mxGeometry x="-0.1483" y="-3" relative="1" as="geometry">
            <mxPoint as="offset" />
          </mxGeometry>
        </mxCell>
      </root>
    </mxGraphModel>
  </diagram>
</mxfile>
